<?xml version="1.0" standalone="no"?><!DOCTYPE svg PUBLIC "-//W3C//DTD SVG 1.1//EN" "http://www.w3.org/Graphics/SVG/1.1/DTD/svg11.dtd"><svg t="1765787469113" class="icon" viewBox="0 0 1024 1024" version="1.1" xmlns="http://www.w3.org/2000/svg" p-id="2184" id="mx_n_1765787469115" xmlns:xlink="http://www.w3.org/1999/xlink" width="200" height="200"><path d="M1004.8 563.2 960 563.2c-6.4-76.8-32-134.4-44.8-153.6L960 166.4c0-6.4 0-12.8-6.4-19.2-6.4-6.4-12.8-6.4-19.2-6.4L704 224c-25.6-12.8-102.4-38.4-192-38.4S345.6 211.2 320 224L89.6 140.8c-6.4 0-12.8 0-19.2 6.4C64 147.2 64 153.6 64 166.4l38.4 249.6C96 428.8 70.4 492.8 64 563.2L19.2 563.2C6.4 563.2 0 576 0 588.8c0 12.8 6.4 19.2 19.2 19.2l38.4 0c0 12.8 0 32 6.4 44.8 0 12.8 6.4 19.2 6.4 32l-38.4 12.8c-12.8 6.4-19.2 12.8-12.8 25.6 0 6.4 12.8 12.8 19.2 12.8 0 0 6.4 0 6.4 0l44.8-12.8c12.8 19.2 32 44.8 51.2 57.6l-51.2 44.8c-6.4 6.4-12.8 19.2 0 32 6.4 6.4 12.8 6.4 19.2 6.4 6.4 0 12.8 0 12.8-6.4l57.6-51.2c76.8 51.2 198.4 76.8 332.8 76.8 134.4 0 249.6-25.6 332.8-76.8l57.6 51.2c6.4 6.4 6.4 6.4 12.8 6.4 6.4 0 12.8 0 19.2-6.4 6.4-6.4 6.4-25.6 0-32l-51.2-44.8c19.2-19.2 38.4-38.4 51.2-57.6l44.8 12.8c0 0 6.4 0 6.4 0 6.4 0 19.2-6.4 19.2-12.8 6.4-12.8-6.4-25.6-12.8-25.6l-38.4-12.8c6.4-12.8 6.4-19.2 6.4-32 0-12.8 6.4-32 6.4-44.8l38.4 0c12.8 0 19.2-6.4 19.2-19.2C1024 576 1017.6 563.2 1004.8 563.2zM915.2 646.4c0 6.4-6.4 19.2-6.4 25.6l-70.4-19.2c-12.8 0-25.6 6.4-25.6 12.8-6.4 12.8 6.4 25.6 12.8 25.6l64 19.2c-12.8 19.2-25.6 32-44.8 44.8l-44.8-38.4c-6.4-6.4-25.6-6.4-32 0-6.4 6.4-6.4 25.6 0 32l32 25.6c-70.4 38.4-172.8 64-294.4 64-121.6 0-224-25.6-300.8-64l32-25.6c6.4-6.4 12.8-19.2 0-32-6.4-6.4-19.2-12.8-32 0l-44.8 38.4c-19.2-12.8-32-25.6-44.8-44.8l64-19.2c12.8-6.4 19.2-12.8 12.8-25.6-6.4-12.8-12.8-19.2-25.6-12.8l-70.4 19.2c0-6.4-6.4-19.2-6.4-25.6 0-12.8-6.4-25.6-6.4-38.4l70.4 0C185.6 608 192 601.6 192 588.8 192 576 185.6 563.2 172.8 563.2l-64 0c6.4-76.8 44.8-140.8 44.8-140.8 0 0 0 0 0 0 0 0 0 0 0-6.4 0 0 0 0 0-6.4 0 0 0 0 0 0L115.2 192l198.4 70.4c0 0 0 0 0 0 0 0 6.4 0 6.4 0 0 0 0 0 6.4 0 0 0 0 0 0 0 0 0 6.4 0 6.4 0 0 0 0 0 0 0 0 0 83.2-38.4 185.6-38.4s179.2 38.4 185.6 38.4c0 0 0 0 0 0 0 0 6.4 0 6.4 0 0 0 0 0 0 0 0 0 6.4 0 6.4 0 0 0 0 0 0 0L908.8 192l-38.4 217.6c0 0 0 0 0 0 0 0 0 0 0 6.4 0 0 0 0 0 6.4 0 0 0 0 0 0 0 0 32 57.6 44.8 140.8l-64 0C838.4 563.2 832 576 832 588.8c0 12.8 6.4 19.2 19.2 19.2l70.4 0C921.6 620.8 921.6 633.6 915.2 646.4z" fill="#d4237a" p-id="2185"></path><path d="M332.8 531.2m-32 0a0.5 0.5 0 1 0 64 0 0.5 0.5 0 1 0-64 0Z" fill="#d4237a" p-id="2186"></path><path d="M716.8 531.2m-32 0a0.5 0.5 0 1 0 64 0 0.5 0.5 0 1 0-64 0Z" fill="#d4237a" p-id="2187"></path></svg>